<mxfile host="app.diagrams.net" modified="2020-09-15T07:44:03.778Z" agent="5.0 (Windows NT 10.0; Win64; x64) AppleWebKit/537.36 (KHTML, like Gecko) Chrome/85.0.4183.102 Safari/537.36" etag="GiuAqdbci9gJ3HDPeXlA" version="13.7.1" type="github">
  <diagram id="kgpKYQtTHZ0yAKxKKP6v" name="Page-1">
    <mxGraphModel dx="2522" dy="832" grid="1" gridSize="10" guides="1" tooltips="1" connect="1" arrows="1" fold="1" page="1" pageScale="1" pageWidth="1100" pageHeight="850" math="0" shadow="0">
      <root>
        <mxCell id="0" />
        <mxCell id="1" parent="0" />
        <mxCell id="ORQ5gyo4uyK21jIdF5UX-24" value="Loop" style="shape=umlFrame;whiteSpace=wrap;html=1;width=110;height=30;" vertex="1" parent="1">
          <mxGeometry x="20" y="130" width="680" height="560" as="geometry" />
        </mxCell>
        <mxCell id="ORQ5gyo4uyK21jIdF5UX-5" value="Loop" style="shape=umlFrame;whiteSpace=wrap;html=1;width=110;height=30;" vertex="1" parent="1">
          <mxGeometry x="40" y="180" width="620" height="240" as="geometry" />
        </mxCell>
        <mxCell id="ORQ5gyo4uyK21jIdF5UX-8" value="opt" style="shape=umlFrame;whiteSpace=wrap;html=1;" vertex="1" parent="1">
          <mxGeometry x="280" y="290" width="340" height="70" as="geometry" />
        </mxCell>
        <mxCell id="3nuBFxr9cyL0pnOWT2aG-1" value=":Joueur" style="shape=umlLifeline;perimeter=lifelinePerimeter;container=1;collapsible=0;recursiveResize=0;rounded=0;shadow=0;strokeWidth=1;" parent="1" vertex="1">
          <mxGeometry x="120" y="80" width="100" height="660" as="geometry" />
        </mxCell>
        <mxCell id="3nuBFxr9cyL0pnOWT2aG-5" value=":Système" style="shape=umlLifeline;perimeter=lifelinePerimeter;container=1;collapsible=0;recursiveResize=0;rounded=0;shadow=0;strokeWidth=1;" parent="1" vertex="1">
          <mxGeometry x="320" y="80" width="100" height="670" as="geometry" />
        </mxCell>
        <mxCell id="3nuBFxr9cyL0pnOWT2aG-6" value="" style="points=[];perimeter=orthogonalPerimeter;rounded=0;shadow=0;strokeWidth=1;" parent="3nuBFxr9cyL0pnOWT2aG-5" vertex="1">
          <mxGeometry x="45" y="120" width="10" height="200" as="geometry" />
        </mxCell>
        <mxCell id="ORQ5gyo4uyK21jIdF5UX-12" value="" style="html=1;points=[];perimeter=orthogonalPerimeter;" vertex="1" parent="3nuBFxr9cyL0pnOWT2aG-5">
          <mxGeometry x="45" y="390" width="10" height="80" as="geometry" />
        </mxCell>
        <mxCell id="ORQ5gyo4uyK21jIdF5UX-18" value="" style="html=1;points=[];perimeter=orthogonalPerimeter;" vertex="1" parent="3nuBFxr9cyL0pnOWT2aG-5">
          <mxGeometry x="45" y="500" width="10" height="80" as="geometry" />
        </mxCell>
        <mxCell id="3nuBFxr9cyL0pnOWT2aG-7" value="return" style="verticalAlign=bottom;endArrow=open;dashed=1;endSize=8;exitX=0;exitY=0.95;shadow=0;strokeWidth=1;entryX=0.49;entryY=0.411;entryDx=0;entryDy=0;entryPerimeter=0;" parent="1" source="3nuBFxr9cyL0pnOWT2aG-6" edge="1">
          <mxGeometry relative="1" as="geometry">
            <mxPoint x="169" y="391.26" as="targetPoint" />
          </mxGeometry>
        </mxCell>
        <mxCell id="3nuBFxr9cyL0pnOWT2aG-8" value="Poser_Carte()" style="verticalAlign=bottom;endArrow=block;entryX=0;entryY=0;shadow=0;strokeWidth=1;" parent="1" target="3nuBFxr9cyL0pnOWT2aG-6" edge="1">
          <mxGeometry relative="1" as="geometry">
            <mxPoint x="175" y="200.00000000000034" as="sourcePoint" />
          </mxGeometry>
        </mxCell>
        <mxCell id="ORQ5gyo4uyK21jIdF5UX-1" value=":Jeu" style="shape=umlLifeline;perimeter=lifelinePerimeter;container=1;collapsible=0;recursiveResize=0;rounded=0;shadow=0;strokeWidth=1;" vertex="1" parent="1">
          <mxGeometry x="550" y="80" width="100" height="660" as="geometry" />
        </mxCell>
        <mxCell id="ORQ5gyo4uyK21jIdF5UX-2" value="" style="points=[];perimeter=orthogonalPerimeter;rounded=0;shadow=0;strokeWidth=1;" vertex="1" parent="ORQ5gyo4uyK21jIdF5UX-1">
          <mxGeometry x="45" y="230" width="10" height="40" as="geometry" />
        </mxCell>
        <mxCell id="ORQ5gyo4uyK21jIdF5UX-21" value="" style="points=[];perimeter=orthogonalPerimeter;rounded=0;shadow=0;strokeWidth=1;" vertex="1" parent="ORQ5gyo4uyK21jIdF5UX-1">
          <mxGeometry x="45" y="520" width="10" height="40" as="geometry" />
        </mxCell>
        <mxCell id="ORQ5gyo4uyK21jIdF5UX-22" value="Joueur_Suivant()" style="verticalAlign=bottom;endArrow=block;shadow=0;strokeWidth=1;entryX=0.1;entryY=0;entryDx=0;entryDy=0;entryPerimeter=0;" edge="1" parent="ORQ5gyo4uyK21jIdF5UX-1" target="ORQ5gyo4uyK21jIdF5UX-21">
          <mxGeometry relative="1" as="geometry">
            <mxPoint x="-170" y="520" as="sourcePoint" />
            <mxPoint x="40" y="520" as="targetPoint" />
          </mxGeometry>
        </mxCell>
        <mxCell id="ORQ5gyo4uyK21jIdF5UX-23" value="return" style="verticalAlign=bottom;endArrow=open;dashed=1;endSize=8;exitX=0.1;exitY=0.975;shadow=0;strokeWidth=1;exitDx=0;exitDy=0;exitPerimeter=0;" edge="1" parent="ORQ5gyo4uyK21jIdF5UX-1" source="ORQ5gyo4uyK21jIdF5UX-21">
          <mxGeometry relative="1" as="geometry">
            <mxPoint x="-170" y="559" as="targetPoint" />
            <mxPoint y="550" as="sourcePoint" />
          </mxGeometry>
        </mxCell>
        <mxCell id="ORQ5gyo4uyK21jIdF5UX-3" value="Plis_add(carte)" style="verticalAlign=bottom;endArrow=block;shadow=0;strokeWidth=1;entryX=0.1;entryY=0;entryDx=0;entryDy=0;entryPerimeter=0;" edge="1" parent="1" target="ORQ5gyo4uyK21jIdF5UX-2">
          <mxGeometry relative="1" as="geometry">
            <mxPoint x="380" y="310" as="sourcePoint" />
            <mxPoint x="590" y="310" as="targetPoint" />
          </mxGeometry>
        </mxCell>
        <mxCell id="ORQ5gyo4uyK21jIdF5UX-4" value="return" style="verticalAlign=bottom;endArrow=open;dashed=1;endSize=8;exitX=0.1;exitY=0.975;shadow=0;strokeWidth=1;exitDx=0;exitDy=0;exitPerimeter=0;" edge="1" parent="1" source="ORQ5gyo4uyK21jIdF5UX-2">
          <mxGeometry relative="1" as="geometry">
            <mxPoint x="380" y="349" as="targetPoint" />
            <mxPoint x="550" y="340" as="sourcePoint" />
          </mxGeometry>
        </mxCell>
        <mxCell id="ORQ5gyo4uyK21jIdF5UX-6" value="ref" style="shape=umlFrame;whiteSpace=wrap;html=1;" vertex="1" parent="1">
          <mxGeometry x="280" y="210" width="340" height="70" as="geometry" />
        </mxCell>
        <mxCell id="ORQ5gyo4uyK21jIdF5UX-7" value="Vérifier&amp;nbsp; carte valide" style="text;html=1;strokeColor=none;fillColor=none;align=center;verticalAlign=middle;whiteSpace=wrap;rounded=0;" vertex="1" parent="1">
          <mxGeometry x="390" y="235" width="180" height="20" as="geometry" />
        </mxCell>
        <mxCell id="ORQ5gyo4uyK21jIdF5UX-10" value="[Carte_valide]" style="text;html=1;strokeColor=none;fillColor=none;align=center;verticalAlign=middle;whiteSpace=wrap;rounded=0;" vertex="1" parent="1">
          <mxGeometry x="230" y="320" width="180" height="20" as="geometry" />
        </mxCell>
        <mxCell id="ORQ5gyo4uyK21jIdF5UX-11" value="[Not Carte_valide]" style="text;html=1;strokeColor=none;fillColor=none;align=center;verticalAlign=middle;whiteSpace=wrap;rounded=0;" vertex="1" parent="1">
          <mxGeometry x="10" y="215" width="180" height="20" as="geometry" />
        </mxCell>
        <mxCell id="ORQ5gyo4uyK21jIdF5UX-13" value="Tirer_Carte()" style="html=1;verticalAlign=bottom;endArrow=block;entryX=0;entryY=0;" edge="1" target="ORQ5gyo4uyK21jIdF5UX-12" parent="1" source="3nuBFxr9cyL0pnOWT2aG-1">
          <mxGeometry relative="1" as="geometry">
            <mxPoint x="295" y="470" as="sourcePoint" />
          </mxGeometry>
        </mxCell>
        <mxCell id="ORQ5gyo4uyK21jIdF5UX-14" value="return" style="html=1;verticalAlign=bottom;endArrow=open;dashed=1;endSize=8;exitX=0;exitY=0.95;" edge="1" source="ORQ5gyo4uyK21jIdF5UX-12" parent="1" target="3nuBFxr9cyL0pnOWT2aG-1">
          <mxGeometry relative="1" as="geometry">
            <mxPoint x="295" y="546" as="targetPoint" />
          </mxGeometry>
        </mxCell>
        <mxCell id="ORQ5gyo4uyK21jIdF5UX-15" value="" style="points=[];perimeter=orthogonalPerimeter;rounded=0;shadow=0;strokeWidth=1;" vertex="1" parent="1">
          <mxGeometry x="595" y="490" width="10" height="40" as="geometry" />
        </mxCell>
        <mxCell id="ORQ5gyo4uyK21jIdF5UX-16" value="Tas_tire(), Main_add(Carte)" style="verticalAlign=bottom;endArrow=block;shadow=0;strokeWidth=1;entryX=0.1;entryY=0;entryDx=0;entryDy=0;entryPerimeter=0;" edge="1" parent="1" target="ORQ5gyo4uyK21jIdF5UX-15">
          <mxGeometry relative="1" as="geometry">
            <mxPoint x="380" y="490" as="sourcePoint" />
            <mxPoint x="590" y="490" as="targetPoint" />
          </mxGeometry>
        </mxCell>
        <mxCell id="ORQ5gyo4uyK21jIdF5UX-17" value="return" style="verticalAlign=bottom;endArrow=open;dashed=1;endSize=8;exitX=0.1;exitY=0.975;shadow=0;strokeWidth=1;exitDx=0;exitDy=0;exitPerimeter=0;" edge="1" parent="1" source="ORQ5gyo4uyK21jIdF5UX-15">
          <mxGeometry relative="1" as="geometry">
            <mxPoint x="380" y="529" as="targetPoint" />
            <mxPoint x="550" y="520" as="sourcePoint" />
          </mxGeometry>
        </mxCell>
        <mxCell id="ORQ5gyo4uyK21jIdF5UX-19" value="Passer_Tour()" style="html=1;verticalAlign=bottom;endArrow=block;entryX=0;entryY=0;" edge="1" target="ORQ5gyo4uyK21jIdF5UX-18" parent="1" source="3nuBFxr9cyL0pnOWT2aG-1">
          <mxGeometry relative="1" as="geometry">
            <mxPoint x="295" y="580" as="sourcePoint" />
          </mxGeometry>
        </mxCell>
        <mxCell id="ORQ5gyo4uyK21jIdF5UX-20" value="return" style="html=1;verticalAlign=bottom;endArrow=open;dashed=1;endSize=8;exitX=0;exitY=0.95;" edge="1" source="ORQ5gyo4uyK21jIdF5UX-18" parent="1" target="3nuBFxr9cyL0pnOWT2aG-1">
          <mxGeometry relative="1" as="geometry">
            <mxPoint x="295" y="656" as="targetPoint" />
          </mxGeometry>
        </mxCell>
        <mxCell id="ORQ5gyo4uyK21jIdF5UX-25" value="[Not Tour_finished]" style="text;html=1;strokeColor=none;fillColor=none;align=center;verticalAlign=middle;whiteSpace=wrap;rounded=0;" vertex="1" parent="1">
          <mxGeometry x="-10" y="160" width="180" height="20" as="geometry" />
        </mxCell>
      </root>
    </mxGraphModel>
  </diagram>
</mxfile>
